<svg width="184" height="64" viewBox="0 0 184 64" fill="none" xmlns="http://www.w3.org/2000/svg">
<rect y="0.275024" width="183.438" height="63.3696" rx="13.341" fill="#F5F5F5"/>
<rect x="0.5" y="0.775024" width="182.438" height="62.3696" rx="12.841" stroke="#C2C3CB" stroke-opacity="0.3"/>
<path d="M96.5331 28.0899C96.0351 27.1768 95.3502 26.4815 94.4786 26.0042C93.607 25.5269 92.5901 25.2883 91.428 25.2883C90.1413 25.2883 88.9999 25.5788 88.0038 26.1599C87.0077 26.7409 86.2295 27.5711 85.6691 28.6502C85.1088 29.7293 84.8287 30.9745 84.8287 32.3857C84.8287 33.8383 85.1088 35.1043 85.6691 36.1834C86.2502 37.2625 87.0492 38.0926 88.0661 38.6737C89.0829 39.2548 90.2658 39.5453 91.6148 39.5453C93.275 39.5453 94.6343 39.1095 95.6927 38.2379C96.751 37.3455 97.4463 36.1108 97.7783 34.5336H90.3073V31.2028H102.074V35.0005C101.784 36.5154 101.161 37.9162 100.206 39.2029C99.2517 40.4896 98.0169 41.5272 96.502 42.3158C95.0078 43.0836 93.3269 43.4676 91.4591 43.4676C89.3631 43.4676 87.4642 43.0006 85.7625 42.0668C84.0816 41.1121 82.7534 39.7944 81.778 38.1134C80.8234 36.4324 80.3461 34.5232 80.3461 32.3857C80.3461 30.2481 80.8234 28.3389 81.778 26.6579C82.7534 24.9562 84.0816 23.6384 85.7625 22.7046C87.4642 21.7499 89.3527 21.2726 91.428 21.2726C93.8768 21.2726 96.0039 21.8745 97.8094 23.0781C99.6149 24.261 100.86 25.9316 101.545 28.0899H96.5331Z" fill="#323142"/>
</svg>
