<svg width="184" height="64" viewBox="0 0 184 64" fill="none" xmlns="http://www.w3.org/2000/svg">
<rect x="0.561523" y="0.275085" width="183.438" height="63.3696" rx="13.341" fill="#F5F5F5"/>
<rect x="1.06152" y="0.775085" width="182.438" height="62.3696" rx="12.841" stroke="#C2C3CB" stroke-opacity="0.3"/>
<g clip-path="url(#clip0_112_46)">
<path d="M104.53 39.2327C104.071 40.2814 103.528 41.2468 102.898 42.1343C102.04 43.3442 101.337 44.1817 100.796 44.6468C99.9564 45.4101 99.0569 45.8011 98.0938 45.8233C97.4024 45.8233 96.5685 45.6288 95.5979 45.2341C94.624 44.8413 93.7291 44.6468 92.9108 44.6468C92.0526 44.6468 91.1322 44.8413 90.1477 45.2341C89.1617 45.6288 88.3673 45.8344 87.76 45.8548C86.8364 45.8937 85.9158 45.4917 84.9969 44.6468C84.4104 44.1409 83.6768 43.2738 82.798 42.0453C81.8551 40.7335 81.0799 39.2123 80.4725 37.4781C79.8221 35.6048 79.4961 33.7909 79.4961 32.0347C79.4961 30.0231 79.9357 28.2881 80.8162 26.8341C81.5082 25.6663 82.4288 24.745 83.581 24.0687C84.7332 23.3925 85.9782 23.0478 87.3189 23.0258C88.0525 23.0258 89.0146 23.2502 90.2101 23.6911C91.4022 24.1336 92.1676 24.358 92.5032 24.358C92.7542 24.358 93.6045 24.0956 95.046 23.5726C96.4092 23.0875 97.5598 22.8866 98.5023 22.9657C101.056 23.1696 102.975 24.1651 104.251 25.9587C101.967 27.3272 100.837 29.244 100.86 31.7029C100.88 33.6182 101.583 35.212 102.964 36.4775C103.59 37.0649 104.289 37.5188 105.066 37.8412C104.898 38.3248 104.72 38.788 104.53 39.2327ZM98.6728 16.4407C98.6728 17.9419 98.1182 19.3436 97.0126 20.641C95.6784 22.1833 94.0647 23.0745 92.3147 22.9339C92.2924 22.7538 92.2795 22.5642 92.2795 22.365C92.2795 20.9239 92.914 19.3816 94.0407 18.1205C94.6032 17.482 95.3187 16.9511 96.1862 16.5276C97.052 16.1104 97.8708 15.8797 98.641 15.8402C98.6634 16.0409 98.6728 16.2416 98.6728 16.4407V16.4407Z" fill="#323142"/>
</g>
<defs>
<clipPath id="clip0_112_46">
<rect width="25.5702" height="30.0172" fill="white" transform="translate(79.4961 15.8396)"/>
</clipPath>
</defs>
</svg>
