<!-- icon666.com - MILLIONS OF FREE VECTOR ICONS --><svg viewBox="0 0 64 64" xmlns="http://www.w3.org/2000/svg"><g id="Layer_85" data-name="Layer 85"><path d="m61.59 30.79c-.53-.71-13.33-17.29-29.59-17.29a24.84 24.84 0 0 0 -4.6.44 2 2 0 1 0 .74 3.93 20.89 20.89 0 0 1 3.86-.37c11.9 0 22.23 10.82 25.41 14.5a55.56 55.56 0 0 1 -6.71 6.55 2 2 0 1 0 2.54 3.09 56.15 56.15 0 0 0 8.35-8.43 2 2 0 0 0 0-2.42z" fill="#000000" style="fill: rgb(194, 195, 203);"></path><path d="m48.4 42.29-8.8-8.8-9.09-9.09-7.82-7.82-10.44-10.44a2 2 0 0 0 -2.82 2.86l8.49 8.49a55.12 55.12 0 0 0 -15.51 13.3 2 2 0 0 0 0 2.42c.53.71 13.33 17.29 29.59 17.29a29.57 29.57 0 0 0 14.67-4.29l8.33 8.36a2 2 0 0 0 2.83-2.83zm-19.58-13.93 6.83 6.83a4.84 4.84 0 1 1 -6.83-6.83zm3.18 18.14c-11.9 0-22.23-10.82-25.41-14.5a50.36 50.36 0 0 1 14.28-11.59l5.13 5.12a8.83 8.83 0 1 0 12.47 12.47l5.27 5.27a25 25 0 0 1 -11.74 3.23z" fill="#000000" style="fill: rgb(194, 195, 203);"></path></g></svg>