<svg width="130" height="130" viewBox="0 0 130 130" fill="none" xmlns="http://www.w3.org/2000/svg">
<path d="M99.0808 102.926C78.8008 103.949 58.4174 99.8568 43.2494 84.9897C29.5586 71.5703 26.8811 53.3966 46.8977 44.7936C56.3731 40.721 70.3299 42.226 76.4291 51.3826C83.2241 61.5838 68.7238 68.5095 60.5968 68.1606C41.615 67.346 23.6857 51.816 22.9108 31.0129C21.9931 6.37731 47.1783 9.36364 47.1043 9.51506" stroke="#90A9C5" stroke-width="2.88658" stroke-miterlimit="1.5" stroke-linecap="round" stroke-linejoin="round"/>
<path d="M84.3529 120.097C84.9605 117.935 86.3948 116.261 87.7404 114.518C92.158 108.794 98.7456 104.041 106.048 102.906C98.1502 101.599 88.3368 97.2391 85.2089 89.4299" stroke="#90A9C5" stroke-width="2.88658" stroke-miterlimit="1.5" stroke-linecap="round" stroke-linejoin="round"/>
</svg>
