<svg width="130" height="130" viewBox="0 0 130 130" fill="none" xmlns="http://www.w3.org/2000/svg">
<path d="M30.2112 102.926C50.4912 103.949 70.8746 99.8568 86.0426 84.9897C99.7334 71.5703 102.411 53.3966 82.3943 44.7936C72.9189 40.721 58.9621 42.226 52.8629 51.3826C46.0679 61.5838 60.5682 68.5095 68.6952 68.1606C87.6769 67.346 105.606 51.816 106.381 31.0129C107.299 6.37731 82.1137 9.36364 82.1877 9.51506" stroke="#90A9C5" stroke-width="2.88658" stroke-miterlimit="1.5" stroke-linecap="round" stroke-linejoin="round"/>
<path d="M44.9391 120.097C44.3315 117.935 42.8972 116.261 41.5516 114.518C37.134 108.794 30.5464 104.041 23.2437 102.906C31.1418 101.599 40.9552 97.2391 44.0831 89.4299" stroke="#90A9C5" stroke-width="2.88658" stroke-miterlimit="1.5" stroke-linecap="round" stroke-linejoin="round"/>
</svg>
