<svg width="43" height="126" viewBox="0 0 43 126" fill="none" xmlns="http://www.w3.org/2000/svg">
<circle opacity="0.3" cx="21.6744" cy="104.964" r="20.9927" fill="#90A9C5"/>
<path fill-rule="evenodd" clip-rule="evenodd" d="M11.1777 105.62C11.1777 99.4606 16.1708 94.4675 22.3301 94.4675C28.4894 94.4675 33.4825 99.4606 33.4825 105.62C33.4825 111.779 28.4894 116.772 22.3301 116.772C16.1708 116.772 11.1777 111.779 11.1777 105.62ZM23.3142 99.0597C23.3142 98.5162 22.8736 98.0757 22.3301 98.0757C21.7867 98.0757 21.3461 98.5162 21.3461 99.0597V105.62C21.3461 105.959 21.5209 106.275 21.8086 106.454L25.7447 108.914C26.2056 109.202 26.8127 109.062 27.1007 108.602C27.3887 108.141 27.2486 107.534 26.7878 107.246L23.3142 105.075V99.0597Z" fill="#90A9C5"/>
<line opacity="0.7" x1="22.6579" y1="42.062" x2="22.6579" y2="84.0474" stroke="#6C5FBC" stroke-width="1.96807" stroke-dasharray="2.62 2.62"/>
<circle opacity="0.3" cx="21.6744" cy="20.9927" r="20.9927" fill="#90A9C5"/>
<path d="M18.2022 18.8852C18.2022 16.8367 19.8629 15.1761 21.9113 15.1761C23.9598 15.1761 25.6204 16.8367 25.6204 18.8852C25.6204 20.9336 23.9598 22.5943 21.9113 22.5943C19.8629 22.5943 18.2022 20.9336 18.2022 18.8852Z" fill="#90A9C5"/>
<path fill-rule="evenodd" clip-rule="evenodd" d="M12.5228 17.604C12.915 12.8461 16.8909 9.18445 21.6649 9.18445H22.1579C26.9318 9.18445 30.9078 12.8461 31.2999 17.604C31.5111 20.1656 30.7198 22.7093 29.0928 24.6991L23.6226 31.3889C22.7382 32.4706 21.0846 32.4706 20.2001 31.3889L14.73 24.6991C13.1029 22.7093 12.3117 20.1656 12.5228 17.604ZM21.9113 13.4642C18.9174 13.4642 16.4904 15.8912 16.4904 18.8852C16.4904 21.8791 18.9174 24.3062 21.9113 24.3062C24.9053 24.3062 27.3323 21.8791 27.3323 18.8852C27.3323 15.8912 24.9053 13.4642 21.9113 13.4642Z" fill="#90A9C5"/>
</svg>
