<svg width="40" height="40" viewBox="0 0 40 40" fill="none" xmlns="http://www.w3.org/2000/svg">
<path d="M20.0002 3.33325C10.8002 3.33325 3.3335 10.7999 3.3335 19.9999C3.3335 29.1999 10.8002 36.6666 20.0002 36.6666C29.2002 36.6666 36.6668 29.1999 36.6668 19.9999C36.6668 10.7999 29.2002 3.33325 20.0002 3.33325ZM19.3502 24.7333C19.3502 26.5499 17.9335 27.9666 16.1168 27.9666H13.6502C11.8668 27.9666 10.4168 26.5166 10.4168 24.7333V20.2833C10.4168 15.1499 11.5335 13.9999 14.5168 12.2333C14.7168 12.1166 14.9335 12.0666 15.1502 12.0666C15.5835 12.0666 16.0002 12.2833 16.2335 12.6833C16.5835 13.2833 16.3835 14.0499 15.8002 14.3999C13.7835 15.5666 13.0835 15.9999 12.9502 19.0166H16.1335C17.9502 19.0166 19.3668 20.4333 19.3668 22.2499V24.7333H19.3502ZM29.5835 24.7333C29.5835 26.5499 28.1668 27.9666 26.3502 27.9666H23.8668C22.0835 27.9666 20.6335 26.5166 20.6335 24.7333V20.2833C20.6335 15.1499 21.7502 13.9999 24.7335 12.2333C24.9335 12.1166 25.1502 12.0666 25.3668 12.0666C25.8002 12.0666 26.2168 12.2833 26.4502 12.6833C26.8002 13.2833 26.6002 14.0499 26.0168 14.3999C24.0002 15.5999 23.3002 16.0333 23.1668 19.0499H26.3502C28.1668 19.0499 29.5835 20.4666 29.5835 22.2833V24.7333V24.7333Z" fill="#90A9C5"/>
</svg>
