<svg width="81" height="17" viewBox="0 0 81 17" fill="none" xmlns="http://www.w3.org/2000/svg">
<path d="M9.28963 2.98279L10.3903 4.96288C10.5411 5.23468 10.9196 5.49288 11.2309 5.52778L13.0836 5.75945C14.2699 5.90524 14.5758 6.74274 13.7685 7.61997L12.393 9.10609C12.1634 9.35513 12.0442 9.83024 12.1365 10.1563L12.6184 11.906C12.9975 13.2873 12.2766 13.8599 11.0098 13.1814L9.24023 12.2334C8.91794 12.0601 8.406 12.0853 8.10322 12.2799L6.41862 13.3646C5.21267 14.1399 4.44529 13.6295 4.70991 12.2231L5.04876 10.4432C5.11203 10.1105 4.96035 9.64617 4.71 9.41776L3.20792 8.0473C2.3313 7.24121 2.5671 6.38206 3.73524 6.13848L5.5592 5.75947C5.86702 5.69295 6.22375 5.41224 6.349 5.12664L7.28346 3.05979C7.79425 1.94621 8.69538 1.91113 9.28963 2.98279Z" fill="#FFBD39"/>
<path d="M25.2896 2.98279L26.3903 4.96288C26.5411 5.23468 26.9196 5.49288 27.2309 5.52778L29.0836 5.75945C30.2699 5.90524 30.5758 6.74274 29.7685 7.61997L28.393 9.10609C28.1634 9.35513 28.0442 9.83024 28.1365 10.1563L28.6184 11.906C28.9975 13.2873 28.2766 13.8599 27.0098 13.1814L25.2402 12.2334C24.9179 12.0601 24.406 12.0853 24.1032 12.2799L22.4186 13.3646C21.2127 14.1399 20.4453 13.6295 20.7099 12.2231L21.0488 10.4432C21.112 10.1105 20.9604 9.64617 20.71 9.41776L19.2079 8.0473C18.3313 7.24121 18.5671 6.38206 19.7352 6.13848L21.5592 5.75947C21.867 5.69295 22.2238 5.41224 22.349 5.12664L23.2835 3.05979C23.7942 1.94621 24.6954 1.91113 25.2896 2.98279Z" fill="#FFBD39"/>
<path d="M41.2896 2.98279L42.3903 4.96288C42.5411 5.23468 42.9196 5.49288 43.2309 5.52778L45.0836 5.75945C46.2699 5.90524 46.5758 6.74274 45.7685 7.61997L44.393 9.10609C44.1634 9.35513 44.0442 9.83024 44.1365 10.1563L44.6184 11.906C44.9975 13.2873 44.2766 13.8599 43.0098 13.1814L41.2402 12.2334C40.9179 12.0601 40.406 12.0853 40.1032 12.2799L38.4186 13.3646C37.2127 14.1399 36.4453 13.6295 36.7099 12.2231L37.0488 10.4432C37.112 10.1105 36.9604 9.64617 36.71 9.41776L35.2079 8.0473C34.3313 7.24121 34.5671 6.38206 35.7352 6.13848L37.5592 5.75947C37.867 5.69295 38.2238 5.41224 38.349 5.12664L39.2835 3.05979C39.7942 1.94621 40.6954 1.91113 41.2896 2.98279Z" fill="#FFBD39"/>
<path d="M57.2896 2.98279L58.3903 4.96288C58.5411 5.23468 58.9196 5.49288 59.2309 5.52778L61.0836 5.75945C62.2699 5.90524 62.5758 6.74274 61.7685 7.61997L60.393 9.10609C60.1634 9.35513 60.0442 9.83024 60.1365 10.1563L60.6184 11.906C60.9975 13.2873 60.2766 13.8599 59.0098 13.1814L57.2402 12.2334C56.9179 12.0601 56.406 12.0853 56.1032 12.2799L54.4186 13.3646C53.2127 14.1399 52.4453 13.6295 52.7099 12.2231L53.0488 10.4432C53.112 10.1105 52.9604 9.64617 52.71 9.41776L51.2079 8.0473C50.3313 7.24121 50.5671 6.38206 51.7352 6.13848L53.5592 5.75947C53.867 5.69295 54.2238 5.41224 54.349 5.12664L55.2835 3.05979C55.7942 1.94621 56.6954 1.91113 57.2896 2.98279Z" fill="#FFBD39"/>
<path d="M73.2896 2.98279L74.3903 4.96288C74.5411 5.23468 74.9196 5.49288 75.2309 5.52778L77.0836 5.75945C78.2699 5.90524 78.5758 6.74274 77.7685 7.61997L76.393 9.10609C76.1634 9.35513 76.0442 9.83024 76.1365 10.1563L76.6184 11.906C76.9975 13.2873 76.2766 13.8599 75.0098 13.1814L73.2402 12.2334C72.9179 12.0601 72.406 12.0853 72.1032 12.2799L70.4186 13.3646C69.2127 14.1399 68.4453 13.6295 68.7099 12.2231L69.0488 10.4432C69.112 10.1105 68.9604 9.64617 68.71 9.41776L67.2079 8.0473C66.3313 7.24121 66.5671 6.38206 67.7352 6.13848L69.5592 5.75947C69.867 5.69295 70.2238 5.41224 70.349 5.12664L71.2835 3.05979C71.7942 1.94621 72.6954 1.91113 73.2896 2.98279Z" fill="#FFBD39"/>
</svg>
