<svg width="201" height="66" viewBox="0 0 201 66" fill="none" xmlns="http://www.w3.org/2000/svg">
<rect x="0.844238" y="0.916504" width="200.156" height="65" rx="13" fill="white"/>
<path d="M76.433 20.905C76.015 20.905 75.6373 20.9783 75.3 21.125C74.9627 21.2643 74.6767 21.4733 74.442 21.752C74.2073 22.0233 74.0277 22.357 73.903 22.753C73.7783 23.1417 73.716 23.5817 73.716 24.073C73.716 24.7183 73.815 25.2793 74.013 25.756C74.2183 26.2327 74.519 26.5993 74.915 26.856C75.3183 27.1127 75.8207 27.241 76.422 27.241C76.7667 27.241 77.093 27.2117 77.401 27.153C77.709 27.0943 78.0097 27.021 78.303 26.933V27.791C78.0097 27.901 77.7053 27.9817 77.39 28.033C77.082 28.0843 76.7117 28.11 76.279 28.11C75.4797 28.11 74.8123 27.945 74.277 27.615C73.7417 27.285 73.3383 26.8157 73.067 26.207C72.803 25.5983 72.671 24.8833 72.671 24.062C72.671 23.468 72.7517 22.9253 72.913 22.434C73.0817 21.9427 73.3237 21.5173 73.639 21.158C73.9617 20.7987 74.3577 20.5237 74.827 20.333C75.2963 20.135 75.8353 20.036 76.444 20.036C76.8473 20.036 77.236 20.0763 77.61 20.157C77.984 20.2377 78.3177 20.3513 78.611 20.498L78.215 21.334C77.973 21.224 77.7017 21.125 77.401 21.037C77.1077 20.949 76.785 20.905 76.433 20.905ZM83.3722 22.104H84.4282L81.9092 24.942L84.6372 28H83.5152L80.8532 25.008V28H79.8852V22.104H80.8532V24.964L83.3722 22.104ZM87.9405 22.005C88.6591 22.005 89.1908 22.1627 89.5355 22.478C89.8801 22.7933 90.0525 23.2957 90.0525 23.985V28H89.3485L89.1615 27.164H89.1175C88.9488 27.3767 88.7728 27.5563 88.5895 27.703C88.4135 27.8423 88.2081 27.945 87.9735 28.011C87.7461 28.077 87.4675 28.11 87.1375 28.11C86.7855 28.11 86.4665 28.0477 86.1805 27.923C85.9018 27.7983 85.6818 27.6077 85.5205 27.351C85.3591 27.087 85.2785 26.757 85.2785 26.361C85.2785 25.7743 85.5095 25.3233 85.9715 25.008C86.4335 24.6853 87.1448 24.5093 88.1055 24.48L89.1065 24.447V24.095C89.1065 23.6037 89.0001 23.2627 88.7875 23.072C88.5748 22.8813 88.2741 22.786 87.8855 22.786C87.5775 22.786 87.2841 22.8337 87.0055 22.929C86.7268 23.017 86.4665 23.1197 86.2245 23.237L85.9275 22.511C86.1841 22.3717 86.4885 22.2543 86.8405 22.159C87.1925 22.0563 87.5591 22.005 87.9405 22.005ZM88.2265 25.151C87.4931 25.1803 86.9835 25.2977 86.6975 25.503C86.4188 25.7083 86.2795 25.998 86.2795 26.372C86.2795 26.702 86.3785 26.944 86.5765 27.098C86.7818 27.252 87.0421 27.329 87.3575 27.329C87.8561 27.329 88.2705 27.1933 88.6005 26.922C88.9305 26.6433 89.0955 26.218 89.0955 25.646V25.118L88.2265 25.151ZM92.7205 24.249C92.7205 24.5937 92.8158 24.8503 93.0065 25.019C93.2045 25.1803 93.4868 25.261 93.8535 25.261C94.2201 25.261 94.5538 25.206 94.8545 25.096C95.1551 24.9787 95.4631 24.8247 95.7785 24.634V22.104H96.7465V28H95.7785V25.371C95.4485 25.5837 95.1221 25.7523 94.7995 25.877C94.4841 25.9943 94.1028 26.053 93.6555 26.053C93.0541 26.053 92.5848 25.8953 92.2475 25.58C91.9175 25.2647 91.7525 24.843 91.7525 24.315V22.104H92.7205V24.249ZM100.853 22.005C101.571 22.005 102.103 22.1627 102.448 22.478C102.792 22.7933 102.965 23.2957 102.965 23.985V28H102.261L102.074 27.164H102.03C101.861 27.3767 101.685 27.5563 101.502 27.703C101.326 27.8423 101.12 27.945 100.886 28.011C100.658 28.077 100.38 28.11 100.05 28.11C99.6976 28.11 99.3786 28.0477 99.0926 27.923C98.8139 27.7983 98.5939 27.6077 98.4326 27.351C98.2712 27.087 98.1906 26.757 98.1906 26.361C98.1906 25.7743 98.4216 25.3233 98.8836 25.008C99.3456 24.6853 100.057 24.5093 101.018 24.48L102.019 24.447V24.095C102.019 23.6037 101.912 23.2627 101.7 23.072C101.487 22.8813 101.186 22.786 100.798 22.786C100.49 22.786 100.196 22.8337 99.9176 22.929C99.6389 23.017 99.3786 23.1197 99.1366 23.237L98.8396 22.511C99.0962 22.3717 99.4006 22.2543 99.7526 22.159C100.105 22.0563 100.471 22.005 100.853 22.005ZM101.139 25.151C100.405 25.1803 99.8956 25.2977 99.6096 25.503C99.3309 25.7083 99.1916 25.998 99.1916 26.372C99.1916 26.702 99.2906 26.944 99.4886 27.098C99.6939 27.252 99.9542 27.329 100.27 27.329C100.768 27.329 101.183 27.1933 101.513 26.922C101.843 26.6433 102.008 26.218 102.008 25.646V25.118L101.139 25.151ZM108.856 22.918H106.931V28H105.974V22.918H104.071V22.104H108.856V22.918ZM112.734 24.524C113.247 24.524 113.673 24.5863 114.01 24.711C114.347 24.8357 114.6 25.0227 114.769 25.272C114.945 25.514 115.033 25.822 115.033 26.196C115.033 26.5627 114.949 26.8817 114.78 27.153C114.619 27.4243 114.366 27.6333 114.021 27.78C113.676 27.9267 113.233 28 112.69 28H110.017V22.104H110.985V24.524H112.734ZM114.065 26.251C114.065 25.8917 113.937 25.6497 113.68 25.525C113.431 25.393 113.079 25.327 112.624 25.327H110.985V27.219H112.646C113.057 27.219 113.394 27.1457 113.658 26.999C113.929 26.8523 114.065 26.603 114.065 26.251Z" fill="black"/>
<path d="M50.8853 39.911C50.7712 39.7486 50.5856 39.6402 50.3773 39.6144C47.6373 39.285 45.7061 36.9743 46.064 34.4531C46.3168 32.6722 47.6721 31.1892 49.5356 30.6544C49.914 30.5428 50.1225 30.1701 50.0012 29.8219C49.9823 29.7677 49.9559 29.716 49.9227 29.6679C48.6653 27.5799 46.4295 26.1439 43.8658 25.7778C42.5739 25.8346 41.3008 26.0855 40.097 26.5206C39.2325 26.8408 38.3195 27.0368 37.3902 27.1019C36.4609 27.0368 35.548 26.8408 34.6834 26.5206C33.4796 26.0855 32.2065 25.8346 30.9146 25.7778C28.228 25.7778 23 29.2826 23 35.7083C23 41.8149 27.8409 49.611 31.6341 49.611C33.0815 49.6229 34.5115 49.3199 35.8073 48.7265C36.2954 48.4789 36.8348 48.329 37.3903 48.2869C37.9457 48.329 38.4852 48.4789 38.9732 48.7265C40.2691 49.3199 41.6991 49.6229 43.1464 49.611C46.154 49.611 49.5487 44.8603 50.9704 40.4578C51.0299 40.2729 50.9988 40.0731 50.8853 39.911Z" fill="#37474F"/>
<path d="M36.6711 25.7774C41.0403 25.773 44.581 22.5152 44.5857 18.4951C44.5857 18.1294 44.2636 17.833 43.8663 17.833C39.4971 17.8374 35.9564 21.0952 35.9517 25.1153C35.9516 25.481 36.2738 25.7774 36.6711 25.7774Z" fill="#37474F"/>
<path d="M80.449 46.739H75.723L74.941 49H72.442L76.709 37.117H79.48L83.747 49H81.231L80.449 46.739ZM79.803 44.835L78.086 39.871L76.369 44.835H79.803ZM87.7219 40.942C88.0279 40.5113 88.4473 40.1543 88.9799 39.871C89.5239 39.5763 90.1416 39.429 90.8329 39.429C91.6376 39.429 92.3629 39.6273 93.0089 40.024C93.6663 40.4207 94.1819 40.9873 94.5559 41.724C94.9413 42.4493 95.1339 43.2937 95.1339 44.257C95.1339 45.2203 94.9413 46.076 94.5559 46.824C94.1819 47.5607 93.6663 48.133 93.0089 48.541C92.3629 48.949 91.6376 49.153 90.8329 49.153C90.1416 49.153 89.5296 49.0113 88.9969 48.728C88.4756 48.4447 88.0506 48.0877 87.7219 47.657V53.488H85.3419V39.582H87.7219V40.942ZM92.7029 44.257C92.7029 43.6903 92.5839 43.203 92.3459 42.795C92.1193 42.3757 91.8133 42.0583 91.4279 41.843C91.0539 41.6277 90.6459 41.52 90.2039 41.52C89.7733 41.52 89.3653 41.6333 88.9799 41.86C88.6059 42.0753 88.2999 42.3927 88.0619 42.812C87.8353 43.2313 87.7219 43.7243 87.7219 44.291C87.7219 44.8577 87.8353 45.3507 88.0619 45.77C88.2999 46.1893 88.6059 46.5123 88.9799 46.739C89.3653 46.9543 89.7733 47.062 90.2039 47.062C90.6459 47.062 91.0539 46.9487 91.4279 46.722C91.8133 46.4953 92.1193 46.1723 92.3459 45.753C92.5839 45.3337 92.7029 44.835 92.7029 44.257ZM99.2434 40.942C99.5494 40.5113 99.9688 40.1543 100.501 39.871C101.045 39.5763 101.663 39.429 102.354 39.429C103.159 39.429 103.884 39.6273 104.53 40.024C105.188 40.4207 105.703 40.9873 106.077 41.724C106.463 42.4493 106.655 43.2937 106.655 44.257C106.655 45.2203 106.463 46.076 106.077 46.824C105.703 47.5607 105.188 48.133 104.53 48.541C103.884 48.949 103.159 49.153 102.354 49.153C101.663 49.153 101.051 49.0113 100.518 48.728C99.9971 48.4447 99.5721 48.0877 99.2434 47.657V53.488H96.8634V39.582H99.2434V40.942ZM104.224 44.257C104.224 43.6903 104.105 43.203 103.867 42.795C103.641 42.3757 103.335 42.0583 102.949 41.843C102.575 41.6277 102.167 41.52 101.725 41.52C101.295 41.52 100.887 41.6333 100.501 41.86C100.127 42.0753 99.8214 42.3927 99.5834 42.812C99.3568 43.2313 99.2434 43.7243 99.2434 44.291C99.2434 44.8577 99.3568 45.3507 99.5834 45.77C99.8214 46.1893 100.127 46.5123 100.501 46.739C100.887 46.9543 101.295 47.062 101.725 47.062C102.167 47.062 102.575 46.9487 102.949 46.722C103.335 46.4953 103.641 46.1723 103.867 45.753C104.105 45.3337 104.224 44.835 104.224 44.257ZM110.765 36.42V49H108.385V36.42H110.765ZM121.871 44.087C121.871 44.427 121.849 44.733 121.803 45.005H114.918C114.975 45.685 115.213 46.2177 115.632 46.603C116.052 46.9883 116.567 47.181 117.179 47.181C118.063 47.181 118.692 46.8013 119.066 46.042H121.633C121.361 46.9487 120.84 47.6967 120.069 48.286C119.299 48.864 118.352 49.153 117.23 49.153C116.324 49.153 115.508 48.9547 114.782 48.558C114.068 48.15 113.507 47.5777 113.099 46.841C112.703 46.1043 112.504 45.2543 112.504 44.291C112.504 43.3163 112.703 42.4607 113.099 41.724C113.496 40.9873 114.051 40.4207 114.765 40.024C115.479 39.6273 116.301 39.429 117.23 39.429C118.126 39.429 118.925 39.6217 119.627 40.007C120.341 40.3923 120.891 40.942 121.276 41.656C121.673 42.3587 121.871 43.169 121.871 44.087ZM119.406 43.407C119.395 42.795 119.174 42.3077 118.743 41.945C118.313 41.571 117.786 41.384 117.162 41.384C116.573 41.384 116.074 41.5653 115.666 41.928C115.27 42.2793 115.026 42.7723 114.935 43.407H119.406ZM131.756 49.119C130.929 49.119 130.181 48.9773 129.512 48.694C128.855 48.4107 128.334 48.0027 127.948 47.47C127.563 46.9373 127.365 46.3083 127.353 45.583H129.903C129.937 46.0703 130.107 46.4557 130.413 46.739C130.731 47.0223 131.161 47.164 131.705 47.164C132.261 47.164 132.697 47.0337 133.014 46.773C133.332 46.501 133.49 46.1497 133.49 45.719C133.49 45.3677 133.383 45.0787 133.167 44.852C132.952 44.6253 132.68 44.4497 132.351 44.325C132.034 44.189 131.592 44.0417 131.025 43.883C130.255 43.6563 129.626 43.4353 129.138 43.22C128.662 42.9933 128.249 42.659 127.897 42.217C127.557 41.7637 127.387 41.163 127.387 40.415C127.387 39.7123 127.563 39.1003 127.914 38.579C128.266 38.0577 128.759 37.661 129.393 37.389C130.028 37.1057 130.753 36.964 131.569 36.964C132.793 36.964 133.785 37.2643 134.544 37.865C135.315 38.4543 135.74 39.2817 135.819 40.347H133.201C133.179 39.939 133.003 39.6047 132.674 39.344C132.357 39.072 131.932 38.936 131.399 38.936C130.935 38.936 130.561 39.055 130.277 39.293C130.005 39.531 129.869 39.8767 129.869 40.33C129.869 40.6473 129.971 40.9137 130.175 41.129C130.391 41.333 130.651 41.503 130.957 41.639C131.275 41.7637 131.717 41.911 132.283 42.081C133.054 42.3077 133.683 42.5343 134.17 42.761C134.658 42.9877 135.077 43.3277 135.428 43.781C135.78 44.2343 135.955 44.8293 135.955 45.566C135.955 46.2007 135.791 46.79 135.462 47.334C135.134 47.878 134.652 48.3143 134.017 48.643C133.383 48.9603 132.629 49.119 131.756 49.119ZM140.79 41.537V46.093C140.79 46.4103 140.863 46.6427 141.011 46.79C141.169 46.926 141.43 46.994 141.793 46.994H142.898V49H141.402C139.396 49 138.393 48.0253 138.393 46.076V41.537H137.271V39.582H138.393V37.253H140.79V39.582H142.898V41.537H140.79ZM148.792 49.153C147.885 49.153 147.069 48.9547 146.344 48.558C145.618 48.15 145.046 47.5777 144.627 46.841C144.219 46.1043 144.015 45.2543 144.015 44.291C144.015 43.3277 144.224 42.4777 144.644 41.741C145.074 41.0043 145.658 40.4377 146.395 40.041C147.131 39.633 147.953 39.429 148.86 39.429C149.766 39.429 150.588 39.633 151.325 40.041C152.061 40.4377 152.639 41.0043 153.059 41.741C153.489 42.4777 153.705 43.3277 153.705 44.291C153.705 45.2543 153.484 46.1043 153.042 46.841C152.611 47.5777 152.022 48.15 151.274 48.558C150.537 48.9547 149.71 49.153 148.792 49.153ZM148.792 47.079C149.222 47.079 149.625 46.977 149.999 46.773C150.384 46.5577 150.69 46.2403 150.917 45.821C151.143 45.4017 151.257 44.8917 151.257 44.291C151.257 43.3957 151.019 42.71 150.543 42.234C150.078 41.7467 149.506 41.503 148.826 41.503C148.146 41.503 147.573 41.7467 147.109 42.234C146.655 42.71 146.429 43.3957 146.429 44.291C146.429 45.1863 146.65 45.8777 147.092 46.365C147.545 46.841 148.112 47.079 148.792 47.079ZM157.83 41.044C158.136 40.5453 158.533 40.1543 159.02 39.871C159.519 39.5877 160.086 39.446 160.72 39.446V41.945H160.091C159.343 41.945 158.777 42.1207 158.391 42.472C158.017 42.8233 157.83 43.4353 157.83 44.308V49H155.45V39.582H157.83V41.044ZM171.078 44.087C171.078 44.427 171.056 44.733 171.01 45.005H164.125C164.182 45.685 164.42 46.2177 164.839 46.603C165.259 46.9883 165.774 47.181 166.386 47.181C167.27 47.181 167.899 46.8013 168.273 46.042H170.84C170.568 46.9487 170.047 47.6967 169.276 48.286C168.506 48.864 167.559 49.153 166.437 49.153C165.531 49.153 164.715 48.9547 163.989 48.558C163.275 48.15 162.714 47.5777 162.306 46.841C161.91 46.1043 161.711 45.2543 161.711 44.291C161.711 43.3163 161.91 42.4607 162.306 41.724C162.703 40.9873 163.258 40.4207 163.972 40.024C164.686 39.6273 165.508 39.429 166.437 39.429C167.333 39.429 168.132 39.6217 168.834 40.007C169.548 40.3923 170.098 40.942 170.483 41.656C170.88 42.3587 171.078 43.169 171.078 44.087ZM168.613 43.407C168.602 42.795 168.381 42.3077 167.95 41.945C167.52 41.571 166.993 41.384 166.369 41.384C165.78 41.384 165.281 41.5653 164.873 41.928C164.477 42.2793 164.233 42.7723 164.142 43.407H168.613Z" fill="black"/>
</svg>
