<svg width="201" height="66" viewBox="0 0 201 66" fill="none" xmlns="http://www.w3.org/2000/svg">
<rect y="0.916504" width="200.156" height="65" rx="13" fill="white"/>
<path d="M79.2324 22.4165H78.2637C78.2064 22.1379 78.1061 21.8931 77.9629 21.6821C77.8223 21.4712 77.6504 21.2941 77.4473 21.1509C77.2467 21.005 77.0241 20.8957 76.7793 20.8228C76.5345 20.7498 76.2793 20.7134 76.0137 20.7134C75.5293 20.7134 75.0905 20.8358 74.6973 21.0806C74.3066 21.3254 73.9954 21.686 73.7637 22.1626C73.5345 22.6392 73.4199 23.2238 73.4199 23.9165C73.4199 24.6092 73.5345 25.1938 73.7637 25.6704C73.9954 26.147 74.3066 26.5076 74.6973 26.7524C75.0905 26.9972 75.5293 27.1196 76.0137 27.1196C76.2793 27.1196 76.5345 27.0832 76.7793 27.0103C77.0241 26.9373 77.2467 26.8293 77.4473 26.686C77.6504 26.5402 77.8223 26.3618 77.9629 26.1509C78.1061 25.9373 78.2064 25.6925 78.2637 25.4165H79.2324C79.1595 25.8254 79.0267 26.1912 78.834 26.5142C78.6413 26.8371 78.4017 27.1118 78.1152 27.3384C77.8288 27.5623 77.5072 27.7329 77.1504 27.8501C76.7962 27.9673 76.4173 28.0259 76.0137 28.0259C75.3314 28.0259 74.7246 27.8592 74.1934 27.5259C73.6621 27.1925 73.2441 26.7186 72.9395 26.104C72.6348 25.4894 72.4824 24.7603 72.4824 23.9165C72.4824 23.0728 72.6348 22.3436 72.9395 21.729C73.2441 21.1144 73.6621 20.6405 74.1934 20.3071C74.7246 19.9738 75.3314 19.8071 76.0137 19.8071C76.4173 19.8071 76.7962 19.8657 77.1504 19.9829C77.5072 20.1001 77.8288 20.272 78.1152 20.4985C78.4017 20.7225 78.6413 20.9959 78.834 21.3188C79.0267 21.6392 79.1595 22.005 79.2324 22.4165ZM80.6729 27.9165V21.9165H81.5947V24.5259H82.2041L84.3604 21.9165H85.5479L83.126 24.8071L85.5791 27.9165H84.3916L82.4229 25.3853H81.5947V27.9165H80.6729ZM88.3467 28.0571C87.9665 28.0571 87.6214 27.9855 87.3115 27.8423C87.0016 27.6965 86.7555 27.4868 86.5732 27.2134C86.391 26.9373 86.2998 26.604 86.2998 26.2134C86.2998 25.8696 86.3675 25.591 86.5029 25.3774C86.6383 25.1613 86.8193 24.992 87.0459 24.8696C87.2725 24.7472 87.5225 24.6561 87.7959 24.5962C88.0719 24.5337 88.3493 24.4842 88.6279 24.4478C88.9925 24.4009 89.2881 24.3657 89.5146 24.3423C89.7438 24.3162 89.9105 24.2733 90.0146 24.2134C90.1214 24.1535 90.1748 24.0493 90.1748 23.9009V23.8696C90.1748 23.4842 90.0693 23.1847 89.8584 22.9712C89.6501 22.7576 89.3337 22.6509 88.9092 22.6509C88.4691 22.6509 88.124 22.7472 87.874 22.9399C87.624 23.1326 87.4482 23.3384 87.3467 23.5571L86.4717 23.2446C86.6279 22.88 86.8363 22.5962 87.0967 22.3931C87.3597 22.1873 87.6462 22.0441 87.9561 21.9634C88.2686 21.88 88.5758 21.8384 88.8779 21.8384C89.0706 21.8384 89.292 21.8618 89.542 21.9087C89.7946 21.953 90.0381 22.0454 90.2725 22.186C90.5094 22.3267 90.7061 22.5389 90.8623 22.8228C91.0186 23.1066 91.0967 23.4868 91.0967 23.9634V27.9165H90.1748V27.104H90.1279C90.0654 27.2342 89.9613 27.3735 89.8154 27.522C89.6696 27.6704 89.4756 27.7967 89.2334 27.9009C88.9912 28.005 88.6956 28.0571 88.3467 28.0571ZM88.4873 27.229C88.8519 27.229 89.1592 27.1574 89.4092 27.0142C89.6618 26.8709 89.8519 26.686 89.9795 26.4595C90.1097 26.2329 90.1748 25.9946 90.1748 25.7446V24.9009C90.1357 24.9478 90.0498 24.9907 89.917 25.0298C89.7868 25.0662 89.6357 25.0988 89.4639 25.1274C89.2946 25.1535 89.1292 25.1769 88.9678 25.1978C88.8089 25.216 88.68 25.2316 88.5811 25.2446C88.3415 25.2759 88.1175 25.3267 87.9092 25.397C87.7035 25.4647 87.5368 25.5675 87.4092 25.7056C87.2842 25.841 87.2217 26.0259 87.2217 26.2603C87.2217 26.5806 87.3402 26.8228 87.5771 26.9868C87.8167 27.1483 88.1201 27.229 88.4873 27.229ZM97.4043 21.9165V27.9165H96.4824V21.9165H97.4043ZM97.0449 24.7759V25.6353C96.8366 25.7134 96.6296 25.7824 96.4238 25.8423C96.2181 25.8996 96.002 25.9451 95.7754 25.979C95.5488 26.0103 95.3001 26.0259 95.0293 26.0259C94.3496 26.0259 93.804 25.8423 93.3926 25.4751C92.9837 25.1079 92.7793 24.5571 92.7793 23.8228V21.9009H93.7012V23.8228C93.7012 24.13 93.7598 24.3826 93.877 24.5806C93.9941 24.7785 94.153 24.9256 94.3535 25.022C94.554 25.1183 94.7793 25.1665 95.0293 25.1665C95.4199 25.1665 95.7728 25.1313 96.0879 25.061C96.4056 24.9881 96.7246 24.8931 97.0449 24.7759ZM100.861 28.0571C100.481 28.0571 100.136 27.9855 99.8262 27.8423C99.5163 27.6965 99.2702 27.4868 99.0879 27.2134C98.9056 26.9373 98.8145 26.604 98.8145 26.2134C98.8145 25.8696 98.8822 25.591 99.0176 25.3774C99.153 25.1613 99.334 24.992 99.5605 24.8696C99.7871 24.7472 100.037 24.6561 100.311 24.5962C100.587 24.5337 100.864 24.4842 101.143 24.4478C101.507 24.4009 101.803 24.3657 102.029 24.3423C102.258 24.3162 102.425 24.2733 102.529 24.2134C102.636 24.1535 102.689 24.0493 102.689 23.9009V23.8696C102.689 23.4842 102.584 23.1847 102.373 22.9712C102.165 22.7576 101.848 22.6509 101.424 22.6509C100.984 22.6509 100.639 22.7472 100.389 22.9399C100.139 23.1326 99.9629 23.3384 99.8613 23.5571L98.9863 23.2446C99.1426 22.88 99.3509 22.5962 99.6113 22.3931C99.8743 22.1873 100.161 22.0441 100.471 21.9634C100.783 21.88 101.09 21.8384 101.393 21.8384C101.585 21.8384 101.807 21.8618 102.057 21.9087C102.309 21.953 102.553 22.0454 102.787 22.186C103.024 22.3267 103.221 22.5389 103.377 22.8228C103.533 23.1066 103.611 23.4868 103.611 23.9634V27.9165H102.689V27.104H102.643C102.58 27.2342 102.476 27.3735 102.33 27.522C102.184 27.6704 101.99 27.7967 101.748 27.9009C101.506 28.005 101.21 28.0571 100.861 28.0571ZM101.002 27.229C101.367 27.229 101.674 27.1574 101.924 27.0142C102.176 26.8709 102.367 26.686 102.494 26.4595C102.624 26.2329 102.689 25.9946 102.689 25.7446V24.9009C102.65 24.9478 102.564 24.9907 102.432 25.0298C102.301 25.0662 102.15 25.0988 101.979 25.1274C101.809 25.1535 101.644 25.1769 101.482 25.1978C101.324 25.216 101.195 25.2316 101.096 25.2446C100.856 25.2759 100.632 25.3267 100.424 25.397C100.218 25.4647 100.051 25.5675 99.9238 25.7056C99.7988 25.841 99.7363 26.0259 99.7363 26.2603C99.7363 26.5806 99.8548 26.8228 100.092 26.9868C100.331 27.1483 100.635 27.229 101.002 27.229ZM104.478 22.7759V21.9165H109.353V22.7759H107.384V27.9165H106.462V22.7759H104.478ZM111.494 24.0884H113.213C113.916 24.0884 114.454 24.2668 114.826 24.6235C115.199 24.9803 115.385 25.4321 115.385 25.979C115.385 26.3384 115.301 26.6652 115.135 26.9595C114.968 27.2511 114.723 27.4842 114.4 27.6587C114.077 27.8306 113.682 27.9165 113.213 27.9165H110.697V21.9165H111.619V27.0571H113.213C113.577 27.0571 113.877 26.9608 114.111 26.7681C114.346 26.5754 114.463 26.328 114.463 26.0259C114.463 25.7082 114.346 25.4491 114.111 25.2485C113.877 25.048 113.577 24.9478 113.213 24.9478H111.494V24.0884ZM81.3283 40.501C81.2277 40.175 81.0888 39.8832 80.9118 39.6257C80.7387 39.3641 80.5294 39.1407 80.2839 38.9556C80.0424 38.7704 79.7647 38.6316 79.4508 38.539C79.1369 38.4424 78.7948 38.3941 78.4245 38.3941C77.7605 38.3941 77.1689 38.5612 76.6497 38.8952C76.1305 39.2292 75.722 39.7202 75.4242 40.3682C75.1304 41.0121 74.9835 41.7969 74.9835 42.7226C74.9835 43.6563 75.1304 44.4472 75.4242 45.0951C75.718 45.7431 76.1265 46.2361 76.6497 46.5742C77.1729 46.9082 77.7806 47.0752 78.4728 47.0752C79.1007 47.0752 79.644 46.9545 80.1028 46.713C80.5656 46.4715 80.9218 46.1295 81.1713 45.6867C81.4209 45.24 81.5456 44.7168 81.5456 44.1171L82.0527 44.1956H78.6962V42.4449H83.7129V43.93C83.7129 44.9885 83.4875 45.9041 83.0368 46.6768C82.586 47.4495 81.9662 48.0452 81.1774 48.4637C80.3886 48.8783 79.483 49.0855 78.4608 49.0855C77.3218 49.0855 76.3217 48.83 75.4604 48.3188C74.6032 47.8037 73.9331 47.0732 73.4501 46.1274C72.9712 45.1776 72.7317 44.0507 72.7317 42.7468C72.7317 41.7487 72.8726 40.8572 73.1543 40.0724C73.44 39.2876 73.8385 38.6215 74.3496 38.0742C74.8607 37.5228 75.4604 37.1042 76.1486 36.8185C76.8368 36.5287 77.5854 36.3838 78.3944 36.3838C79.0785 36.3838 79.7164 36.4844 80.3081 36.6857C80.8997 36.8829 81.4249 37.1646 81.8837 37.5309C82.3465 37.8971 82.7269 38.3317 83.0247 38.8348C83.3225 39.3379 83.5177 39.8933 83.6103 40.501H81.3283ZM89.8268 49.0976C88.9213 49.0976 88.1365 48.8984 87.4724 48.5C86.8083 48.1015 86.2932 47.5441 85.9269 46.8277C85.5647 46.1113 85.3836 45.2742 85.3836 44.3164C85.3836 43.3585 85.5647 42.5194 85.9269 41.799C86.2932 41.0786 86.8083 40.5191 87.4724 40.1207C88.1365 39.7223 88.9213 39.523 89.8268 39.523C90.7323 39.523 91.5171 39.7223 92.1812 40.1207C92.8453 40.5191 93.3584 41.0786 93.7206 41.799C94.0869 42.5194 94.27 43.3585 94.27 44.3164C94.27 45.2742 94.0869 46.1113 93.7206 46.8277C93.3584 47.5441 92.8453 48.1015 92.1812 48.5C91.5171 48.8984 90.7323 49.0976 89.8268 49.0976ZM89.8389 47.3469C90.3299 47.3469 90.7404 47.2121 91.0704 46.9424C91.4004 46.6688 91.6459 46.3025 91.8069 45.8437C91.9719 45.3849 92.0544 44.8738 92.0544 44.3103C92.0544 43.7429 91.9719 43.2297 91.8069 42.7709C91.6459 42.3081 91.4004 41.9398 91.0704 41.6661C90.7404 41.3925 90.3299 41.2556 89.8389 41.2556C89.3358 41.2556 88.9172 41.3925 88.5832 41.6661C88.2532 41.9398 88.0057 42.3081 87.8406 42.7709C87.6797 43.2297 87.5992 43.7429 87.5992 44.3103C87.5992 44.8738 87.6797 45.3849 87.8406 45.8437C88.0057 46.3025 88.2532 46.6688 88.5832 46.9424C88.9172 47.2121 89.3358 47.3469 89.8389 47.3469ZM100.17 49.0976C99.264 49.0976 98.4792 48.8984 97.8152 48.5C97.1511 48.1015 96.6359 47.5441 96.2697 46.8277C95.9075 46.1113 95.7264 45.2742 95.7264 44.3164C95.7264 43.3585 95.9075 42.5194 96.2697 41.799C96.6359 41.0786 97.1511 40.5191 97.8152 40.1207C98.4792 39.7223 99.264 39.523 100.17 39.523C101.075 39.523 101.86 39.7223 102.524 40.1207C103.188 40.5191 103.701 41.0786 104.063 41.799C104.43 42.5194 104.613 43.3585 104.613 44.3164C104.613 45.2742 104.43 46.1113 104.063 46.8277C103.701 47.5441 103.188 48.1015 102.524 48.5C101.86 48.8984 101.075 49.0976 100.17 49.0976ZM100.182 47.3469C100.673 47.3469 101.083 47.2121 101.413 46.9424C101.743 46.6688 101.989 46.3025 102.15 45.8437C102.315 45.3849 102.397 44.8738 102.397 44.3103C102.397 43.7429 102.315 43.2297 102.15 42.7709C101.989 42.3081 101.743 41.9398 101.413 41.6661C101.083 41.3925 100.673 41.2556 100.182 41.2556C99.6786 41.2556 99.26 41.3925 98.926 41.6661C98.5959 41.9398 98.3484 42.3081 98.1834 42.7709C98.0224 43.2297 97.9419 43.7429 97.9419 44.3103C97.9419 44.8738 98.0224 45.3849 98.1834 45.8437C98.3484 46.3025 98.5959 46.6688 98.926 46.9424C99.26 47.2121 99.6786 47.3469 100.182 47.3469ZM110.5 52.587C109.715 52.587 109.041 52.4803 108.478 52.267C107.914 52.0577 107.462 51.776 107.12 51.4218C106.777 51.0677 106.54 50.6753 106.407 50.2446L108.375 49.7677C108.464 49.9488 108.593 50.1279 108.762 50.305C108.931 50.4861 109.158 50.635 109.444 50.7517C109.734 50.8725 110.098 50.9328 110.536 50.9328C111.156 50.9328 111.669 50.7819 112.076 50.4801C112.482 50.1822 112.686 49.6912 112.686 49.0071V47.2503H112.577C112.464 47.4757 112.299 47.7071 112.082 47.9446C111.869 48.182 111.585 48.3812 111.231 48.5422C110.881 48.7032 110.44 48.7837 109.909 48.7837C109.196 48.7837 108.55 48.6167 107.971 48.2826C107.395 47.9446 106.936 47.4415 106.594 46.7734C106.256 46.1013 106.087 45.2601 106.087 44.25C106.087 43.2317 106.256 42.3725 106.594 41.6722C106.936 40.9679 107.397 40.4346 107.977 40.0724C108.556 39.7062 109.202 39.523 109.915 39.523C110.458 39.523 110.905 39.6156 111.255 39.8007C111.609 39.9818 111.891 40.2012 112.1 40.4588C112.309 40.7123 112.468 40.9518 112.577 41.1772H112.698V39.6438H114.853V49.0674C114.853 49.8603 114.664 50.5163 114.285 51.0355C113.907 51.5546 113.39 51.943 112.734 52.2006C112.078 52.4582 111.333 52.587 110.5 52.587ZM110.518 47.0692C110.981 47.0692 111.376 46.9565 111.702 46.7311C112.028 46.5058 112.275 46.1818 112.444 45.7592C112.613 45.3366 112.698 44.8295 112.698 44.2379C112.698 43.6543 112.613 43.1432 112.444 42.7045C112.279 42.2658 112.034 41.9257 111.708 41.6843C111.386 41.4388 110.989 41.316 110.518 41.316C110.031 41.316 109.625 41.4428 109.299 41.6963C108.973 41.9499 108.727 42.298 108.562 42.7407C108.397 43.1794 108.315 43.6785 108.315 44.2379C108.315 44.8054 108.397 45.3024 108.562 45.729C108.731 46.1516 108.979 46.4816 109.305 46.7191C109.635 46.9525 110.039 47.0692 110.518 47.0692ZM119.278 36.5529V48.9165H117.093V36.5529H119.278ZM125.63 49.0976C124.701 49.0976 123.898 48.9044 123.222 48.5181C122.549 48.1277 122.032 47.5763 121.67 46.8639C121.308 46.1476 121.127 45.3044 121.127 44.3345C121.127 43.3806 121.308 42.5435 121.67 41.8231C122.036 41.0987 122.547 40.5352 123.203 40.1328C123.859 39.7263 124.63 39.523 125.516 39.523C126.087 39.523 126.626 39.6156 127.134 39.8007C127.645 39.9818 128.095 40.2636 128.486 40.6459C128.88 41.0282 129.19 41.5152 129.415 42.1068C129.641 42.6944 129.754 43.3947 129.754 44.2077V44.8778H122.153V43.4048H127.659C127.655 42.9862 127.564 42.6139 127.387 42.288C127.21 41.9579 126.962 41.6983 126.645 41.5092C126.331 41.32 125.964 41.2255 125.546 41.2255C125.099 41.2255 124.707 41.3341 124.369 41.5514C124.031 41.7648 123.767 42.0465 123.578 42.3966C123.393 42.7427 123.298 43.1231 123.294 43.5376V44.8235C123.294 45.3628 123.393 45.8256 123.59 46.212C123.787 46.5943 124.063 46.8881 124.417 47.0934C124.771 47.2946 125.186 47.3952 125.661 47.3952C125.978 47.3952 126.266 47.3509 126.524 47.2624C126.781 47.1698 127.005 47.035 127.194 46.8579C127.383 46.6808 127.526 46.4615 127.623 46.1999L129.663 46.4293C129.534 46.9686 129.289 47.4395 128.926 47.8419C128.568 48.2404 128.109 48.5503 127.55 48.7716C126.991 48.9889 126.351 49.0976 125.63 49.0976ZM135.916 48.9165V36.5529H140.552C141.502 36.5529 142.299 36.73 142.943 37.0841C143.591 37.4383 144.08 37.9253 144.41 38.5451C144.744 39.1608 144.911 39.8611 144.911 40.6459C144.911 41.4388 144.744 42.1431 144.41 42.7588C144.076 43.3746 143.583 43.8596 142.931 44.2137C142.279 44.5639 141.476 44.7389 140.522 44.7389H137.449V42.8977H140.22C140.775 42.8977 141.23 42.8011 141.584 42.6079C141.939 42.4147 142.2 42.1491 142.369 41.811C142.542 41.473 142.629 41.0846 142.629 40.6459C142.629 40.2072 142.542 39.8209 142.369 39.4868C142.2 39.1528 141.937 38.8932 141.578 38.7081C141.224 38.5189 140.767 38.4243 140.208 38.4243H138.155V48.9165H135.916ZM148.945 36.5529V48.9165H146.76V36.5529H148.945ZM153.861 49.1036C153.273 49.1036 152.744 48.999 152.273 48.7897C151.806 48.5764 151.436 48.2625 151.162 47.848C150.892 47.4334 150.758 46.9223 150.758 46.3146C150.758 45.7914 150.854 45.3587 151.047 45.0166C151.241 44.6746 151.504 44.4009 151.838 44.1956C152.172 43.9904 152.549 43.8354 152.967 43.7308C153.39 43.6221 153.826 43.5436 154.277 43.4953C154.82 43.439 155.261 43.3887 155.599 43.3444C155.937 43.2961 156.183 43.2237 156.336 43.1271C156.493 43.0265 156.571 42.8715 156.571 42.6622V42.626C156.571 42.1712 156.436 41.8191 156.167 41.5696C155.897 41.32 155.509 41.1953 155.002 41.1953C154.466 41.1953 154.042 41.312 153.728 41.5454C153.418 41.7788 153.209 42.0545 153.1 42.3725L151.059 42.0827C151.22 41.5192 151.486 41.0484 151.856 40.6701C152.227 40.2877 152.679 40.002 153.215 39.8128C153.75 39.6196 154.341 39.523 154.989 39.523C155.436 39.523 155.881 39.5754 156.324 39.68C156.766 39.7846 157.171 39.9577 157.537 40.1992C157.903 40.4366 158.197 40.7606 158.418 41.1711C158.644 41.5816 158.756 42.0948 158.756 42.7105V48.9165H156.656V47.6427H156.583C156.45 47.9003 156.263 48.1418 156.022 48.3671C155.784 48.5885 155.484 48.7676 155.122 48.9044C154.764 49.0372 154.343 49.1036 153.861 49.1036ZM154.428 47.4978C154.867 47.4978 155.247 47.4113 155.569 47.2382C155.891 47.0612 156.138 46.8277 156.312 46.538C156.489 46.2482 156.577 45.9322 156.577 45.5902V44.4975C156.509 44.5538 156.392 44.6061 156.227 44.6544C156.066 44.7027 155.885 44.745 155.684 44.7812C155.482 44.8174 155.283 44.8496 155.086 44.8778C154.889 44.906 154.718 44.9301 154.573 44.9502C154.247 44.9945 153.955 45.067 153.698 45.1676C153.44 45.2682 153.237 45.409 153.088 45.5902C152.939 45.7672 152.864 45.9966 152.864 46.2784C152.864 46.6808 153.011 46.9847 153.305 47.1899C153.599 47.3952 153.973 47.4978 154.428 47.4978ZM161.98 52.3938C161.682 52.3938 161.407 52.3696 161.153 52.3213C160.904 52.2771 160.704 52.2247 160.555 52.1644L161.063 50.462C161.381 50.5545 161.664 50.5988 161.914 50.5948C162.163 50.5907 162.383 50.5123 162.572 50.3593C162.765 50.2104 162.928 49.9609 163.061 49.6108L163.248 49.1097L159.885 39.6438H162.204L164.341 46.6466H164.437L166.58 39.6438H168.905L165.192 50.0394C165.019 50.5304 164.789 50.9509 164.504 51.3011C164.218 51.6553 163.868 51.9249 163.453 52.11C163.043 52.2992 162.552 52.3938 161.98 52.3938Z" fill="black"/>
<path d="M45.0174 33.8358L28.2437 49.3098C27.4582 48.7955 26.9919 47.9401 27.0001 47.0287V20.6429C26.9919 19.7315 27.4582 18.8761 28.2437 18.3618L45.0174 33.8358Z" fill="#2196F3"/>
<path d="M50.8862 28.4309L45.0169 33.8359L28.2432 18.3619C28.3064 18.3149 28.3722 18.2713 28.4403 18.2311C29.3268 17.7163 30.4341 17.6997 31.3371 18.1875L50.8862 28.4309Z" fill="#4CAF50"/>
<path d="M57.9998 33.8357C58.0107 34.8646 57.4271 35.8149 56.4832 36.3057L50.8869 39.2407L45.0176 33.8357L50.8869 28.4307L56.4832 31.3656C57.4271 31.8564 58.0107 32.8068 57.9998 33.8357Z" fill="#FFC107"/>
<path d="M50.8862 39.2405L31.3371 49.4838C30.4321 49.964 29.329 49.9474 28.4403 49.4402C28.3722 49.4 28.3064 49.3564 28.2432 49.3094L45.0169 33.8354L50.8862 39.2405Z" fill="#F44336"/>
</svg>
