<svg width="15" height="20" viewBox="0 0 15 20" fill="none" xmlns="http://www.w3.org/2000/svg">
<path d="M11.4821 1.26513C8.77824 0.817221 6.00322 0.817221 3.29937 1.26513C2.31156 1.42877 1.5249 2.17811 1.32683 3.14972C0.419472 7.60085 0.369964 12.1812 1.18091 16.6504L1.51107 18.47C1.61287 19.0311 2.3051 19.2553 2.72332 18.8628L6.70857 15.1217C7.09085 14.7629 7.69062 14.7629 8.0729 15.1217L12.0581 18.8628C12.4764 19.2553 13.1686 19.0311 13.2704 18.47L13.6006 16.6504C14.4115 12.1812 14.362 7.60085 13.4546 3.14972C13.2566 2.17811 12.4699 1.42877 11.4821 1.26513Z" fill="#90A9C5"/>
</svg>
