<svg width="25" height="25" viewBox="0 0 25 25" fill="none" xmlns="http://www.w3.org/2000/svg">
<path d="M15.2 20.1801C16.7879 21.0389 18.1843 19.998 17.8806 18.1764L17.3354 14.9057L19.6452 12.5894C20.9298 11.3011 20.3991 9.6131 18.6213 9.34734L15.4291 8.87014L14.0086 5.90905C13.2129 4.25039 11.4853 4.23255 10.6881 5.89433L9.26049 8.87014L6.06836 9.34734C4.29303 9.61273 3.75797 11.2993 5.04443 12.5894L7.35428 14.9057L6.809 18.1764C6.50573 19.9955 7.89954 21.0402 9.48968 20.1801L12.3448 18.6359L15.2 20.1801Z" fill="#90A9C5"/>
<mask id="mask0_1_2497" style="mask-type:luminance" maskUnits="userSpaceOnUse" x="4" y="4" width="17" height="17">
<path d="M15.2 20.1801C16.7879 21.0389 18.1843 19.998 17.8806 18.1764L17.3354 14.9057L19.6452 12.5894C20.9298 11.3011 20.3991 9.6131 18.6213 9.34734L15.4291 8.87014L14.0086 5.90905C13.2129 4.25039 11.4853 4.23255 10.6881 5.89433L9.26049 8.87014L6.06836 9.34734C4.29303 9.61273 3.75797 11.2993 5.04443 12.5894L7.35428 14.9057L6.809 18.1764C6.50573 19.9955 7.89954 21.0402 9.48968 20.1801L12.3448 18.6359L15.2 20.1801Z" fill="white"/>
</mask>
<g mask="url(#mask0_1_2497)">
</g>
</svg>
