<!-- icon666.com - MILLIONS OF FREE VECTOR ICONS --><svg clip-rule="evenodd" fill-rule="evenodd" stroke-linejoin="round" stroke-miterlimit="2" viewBox="0 0 32 32" xmlns="http://www.w3.org/2000/svg"><g transform="translate(-74 -185)"><path d="m78 210h24c.552 0 1-.448 1-1s-.448-1-1-1h-24c-.552 0-1 .448-1 1s.448 1 1 1zm2.8-8h18.4c.442 0 .8-.448.8-1s-.358-1-.8-1h-18.4c-.442 0-.8.448-.8 1s.358 1 .8 1zm-2.8-8h24c.552 0 1-.448 1-1s-.448-1-1-1h-24c-.552 0-1 .448-1 1s.448 1 1 1z" fill="#000000" style="fill: rgb(135, 156, 183);"></path></g></svg>