<svg width="23" height="21" viewBox="0 0 23 21" fill="none" xmlns="http://www.w3.org/2000/svg">
<path fill-rule="evenodd" clip-rule="evenodd" d="M0.745117 7.19694C0.745117 3.50937 3.72347 0.670044 7.2194 0.670044C9.02148 0.670044 10.6072 1.58786 11.7451 2.77544C12.883 1.58786 14.4688 0.670044 16.2708 0.670044C19.7668 0.670044 22.7451 3.50937 22.7451 7.19694C22.7451 9.72297 21.7534 11.9444 20.3794 13.8221C19.0078 15.6966 17.2136 17.2874 15.4958 18.5801C14.8396 19.0739 14.1758 19.5294 13.5683 19.8654C12.9979 20.181 12.3419 20.47 11.7451 20.47C11.1483 20.47 10.4924 20.181 9.92192 19.8654C9.31441 19.5294 8.65061 19.0739 7.99447 18.5801C6.27661 17.2874 4.48244 15.6966 3.11083 13.8221C1.73685 11.9444 0.745117 9.72297 0.745117 7.19694ZM7.2194 2.71832C4.60549 2.71832 2.63083 4.80633 2.63083 7.19694C2.63083 9.11344 3.37982 10.8978 4.58706 12.5476C5.79667 14.2007 7.42422 15.6592 9.06834 16.8964C9.69047 17.3646 10.2764 17.7629 10.7777 18.0402C11.316 18.338 11.6278 18.4218 11.7451 18.4218C11.8625 18.4218 12.1742 18.338 12.7126 18.0402C13.2138 17.7629 13.7998 17.3646 14.4219 16.8964C16.066 15.6592 17.6936 14.2007 18.9032 12.5476C20.1104 10.8978 20.8594 9.11344 20.8594 7.19694C20.8594 4.80633 18.8847 2.71832 16.2708 2.71832C14.7696 2.71832 13.3678 3.69251 12.4926 4.92899C12.3141 5.18111 12.0379 5.32887 11.7451 5.32887C11.4523 5.32887 11.1761 5.18111 10.9977 4.92899C10.1224 3.69251 8.72062 2.71832 7.2194 2.71832Z" fill="#323142"/>
</svg>
