<svg width="15" height="13" viewBox="0 0 15 13" fill="none" xmlns="http://www.w3.org/2000/svg">
<mask id="path-1-inside-1_29_881" fill="white">
<path d="M14.7451 7.58769H8.89806V12.67H6.56473V7.58769H0.745117V5.77593H6.56473V0.670044H8.89806V5.77593H14.7451V7.58769Z"/>
</mask>
<path d="M14.7451 7.58769H8.89806V12.67H6.56473V7.58769H0.745117V5.77593H6.56473V0.670044H8.89806V5.77593H14.7451V7.58769Z" fill="black"/>
<path d="M14.7451 7.58769V11.6967H18.8542V7.58769H14.7451ZM8.89806 7.58769V3.47864H4.78901V7.58769H8.89806ZM8.89806 12.67V16.7791H13.0071V12.67H8.89806ZM6.56473 12.67H2.45567V16.7791H6.56473V12.67ZM6.56473 7.58769H10.6738V3.47864H6.56473V7.58769ZM0.745117 7.58769H-3.36393V11.6967H0.745117V7.58769ZM0.745117 5.77593V1.66688H-3.36393V5.77593H0.745117ZM6.56473 5.77593V9.88498H10.6738V5.77593H6.56473ZM6.56473 0.670044V-3.43901H2.45567V0.670044H6.56473ZM8.89806 0.670044H13.0071V-3.43901H8.89806V0.670044ZM8.89806 5.77593H4.78901V9.88498H8.89806V5.77593ZM14.7451 5.77593H18.8542V1.66688H14.7451V5.77593ZM14.7451 3.47864H8.89806V11.6967H14.7451V3.47864ZM4.78901 7.58769V12.67H13.0071V7.58769H4.78901ZM8.89806 8.56099H6.56473V16.7791H8.89806V8.56099ZM10.6738 12.67V7.58769H2.45567V12.67H10.6738ZM6.56473 3.47864H0.745117V11.6967H6.56473V3.47864ZM4.85417 7.58769V5.77593H-3.36393V7.58769H4.85417ZM0.745117 9.88498H6.56473V1.66688H0.745117V9.88498ZM10.6738 5.77593V0.670044H2.45567V5.77593H10.6738ZM6.56473 4.77909H8.89806V-3.43901H6.56473V4.77909ZM4.78901 0.670044V5.77593H13.0071V0.670044H4.78901ZM8.89806 9.88498H14.7451V1.66688H8.89806V9.88498ZM10.6361 5.77593V7.58769H18.8542V5.77593H10.6361Z" fill="white" mask="url(#path-1-inside-1_29_881)"/>
</svg>
