<svg width="28" height="27" viewBox="0 0 28 27" fill="none" xmlns="http://www.w3.org/2000/svg">
<path d="M17.151 22.0432C18.9027 22.9854 20.4433 21.8434 20.1083 19.8448L19.5067 16.2562L22.055 13.7148C23.4722 12.3014 22.8867 10.4494 20.9254 10.1578L17.4038 9.6342L15.8367 6.38537C14.9589 4.56554 13.0529 4.54597 12.1734 6.36923L10.5985 9.6342L7.07696 10.1578C5.11841 10.4489 4.52814 12.2994 5.94736 13.7148L8.49559 16.2562L7.89404 19.8448C7.55948 21.8406 9.09712 22.9868 10.8514 22.0432L14.0012 20.3489L17.151 22.0432Z" fill="#6C5FBC"/>
<mask id="mask0_29_885" style="mask-type:luminance" maskUnits="userSpaceOnUse" x="5" y="5" width="18" height="18">
<path d="M17.151 22.0432C18.9027 22.9854 20.4433 21.8434 20.1083 19.8448L19.5067 16.2562L22.055 13.7148C23.4722 12.3014 22.8867 10.4494 20.9254 10.1578L17.4038 9.6342L15.8367 6.38537C14.9589 4.56554 13.0529 4.54597 12.1734 6.36923L10.5985 9.6342L7.07696 10.1578C5.11841 10.4489 4.52814 12.2994 5.94736 13.7148L8.49559 16.2562L7.89404 19.8448C7.55948 21.8406 9.09712 22.9868 10.8514 22.0432L14.0012 20.3489L17.151 22.0432Z" fill="white"/>
</mask>
<g mask="url(#mask0_29_885)">
</g>
</svg>
