<svg width="79" height="93" viewBox="0 0 79 93" fill="none" xmlns="http://www.w3.org/2000/svg">
<ellipse cx="41.3643" cy="65.9223" rx="28.5743" ry="26.3876" fill="#90A9C5" fill-opacity="0.3"/>
<g clip-path="url(#clip0_80_75)">
<path d="M62.5898 57.147C59.9086 57.147 57.7148 59.1728 57.7148 61.6489C57.7148 64.125 59.9086 66.1508 62.5898 66.1508C65.2711 66.1508 67.4648 64.125 67.4648 61.6489C67.4648 59.1728 65.2711 57.147 62.5898 57.147ZM62.5898 63.8999C61.2492 63.8999 60.1523 62.8869 60.1523 61.6489C60.1523 60.4109 61.2492 59.3979 62.5898 59.3979C63.9305 59.3979 65.0273 60.4109 65.0273 61.6489C65.0273 62.8869 63.9305 63.8999 62.5898 63.8999Z" fill="#90A9C5"/>
<path d="M16.2773 57.147C13.5961 57.147 11.4023 59.1728 11.4023 61.6489C11.4023 64.125 13.5961 66.1508 16.2773 66.1508C18.9586 66.1508 21.1523 64.125 21.1523 61.6489C21.1523 59.1728 18.9586 57.147 16.2773 57.147ZM16.2773 63.8999C14.9367 63.8999 13.8398 62.8869 13.8398 61.6489C13.8398 60.4109 14.9367 59.3979 16.2773 59.3979C17.618 59.3979 18.7148 60.4109 18.7148 61.6489C18.7148 62.8869 17.618 63.8999 16.2773 63.8999Z" fill="#90A9C5"/>
<path d="M1.65234 62.7745H6.61875C7.22812 67.2061 11.3262 70.6529 16.2773 70.6529C21.2285 70.6529 25.3418 67.2061 25.9359 62.7745H52.916C53.5254 67.2061 57.6234 70.6529 62.5746 70.6529C67.5258 70.6529 71.6391 67.2061 72.2332 62.7745H77.2148C77.8852 62.7745 78.4336 62.268 78.4336 61.649V54.8961V42.5158C78.4336 42.4876 78.4184 42.4595 78.4184 42.4314C78.4184 42.361 78.3879 42.2907 78.3727 42.2203C78.3422 42.15 78.327 42.0796 78.2812 42.0093C78.266 41.9812 78.266 41.953 78.2508 41.939L68.5008 27.3077C68.4703 27.2654 68.4398 27.2514 68.4094 27.2232C68.3637 27.167 68.3027 27.1107 68.2418 27.0544C68.1809 27.0122 68.1199 26.97 68.059 26.9419C67.998 26.9137 67.9219 26.8715 67.8457 26.8575C67.7695 26.8293 67.6781 26.8153 67.602 26.8153C67.5563 26.8153 67.5105 26.7871 67.4648 26.7871H51.6211C50.9508 26.7871 50.4023 27.2936 50.4023 27.9126V42.5158H46.0758C46.5023 41.8545 46.7461 41.0948 46.7461 40.2648H47.9648C48.6352 40.2648 49.1836 39.7583 49.1836 39.1393C49.1836 38.5203 48.6352 38.0138 47.9648 38.0138H46.7461V35.7769C46.7461 25.6476 38.6566 17.2627 28.1297 15.7714C28.343 15.3494 28.4648 14.8711 28.4648 14.3787C28.4648 12.5216 26.8195 11.0022 24.8086 11.0022C22.7977 11.0022 21.1523 12.5216 21.1523 14.3787C21.1523 14.8851 21.2742 15.3494 21.4875 15.7714C10.9605 17.2627 2.87109 25.6476 2.87109 35.7769V38.0138H1.65234C0.982031 38.0138 0.433594 38.5203 0.433594 39.1393C0.433594 39.7583 0.982031 40.2648 1.65234 40.2648H2.87109C2.87109 41.0808 3.13008 41.8545 3.54141 42.5158H1.65234C0.982031 42.5158 0.433594 43.0222 0.433594 43.6412V54.8961V61.649C0.433594 62.268 0.982031 62.7745 1.65234 62.7745ZM51.6211 52.6451C52.2914 52.6451 52.8398 52.1387 52.8398 51.5196V29.0099H66.7793L75.9961 42.8393V54.8961V60.5235H72.2484C71.6391 56.0919 67.541 52.6451 62.5898 52.6451C57.6387 52.6451 53.5254 56.0919 52.9313 60.5235H25.9359C25.3266 56.0919 21.2285 52.6451 16.2773 52.6451C11.3262 52.6451 7.21289 56.0919 6.61875 60.5235H2.87109V54.8961V49.2687H50.4023V51.5196C50.4023 52.1387 50.9508 52.6451 51.6211 52.6451ZM16.2773 68.4019C12.2402 68.4019 8.96484 65.3772 8.96484 61.649C8.96484 57.9208 12.2402 54.8961 16.2773 54.8961C20.3145 54.8961 23.5898 57.9208 23.5898 61.649C23.5898 65.3772 20.3145 68.4019 16.2773 68.4019ZM62.5898 68.4019C58.5527 68.4019 55.2773 65.3772 55.2773 61.649C55.2773 57.9208 58.5527 54.8961 62.5898 54.8961C66.627 54.8961 69.9023 57.9208 69.9023 61.649C69.9023 65.3772 66.627 68.4019 62.5898 68.4019ZM50.4023 47.0177H2.87109V44.7667H7.71562C7.73086 44.7667 7.73086 44.7667 7.74609 44.7667C7.74609 44.7667 7.74609 44.7667 7.76133 44.7667H41.8559C41.8559 44.7667 41.8559 44.7667 41.8711 44.7667C41.8863 44.7667 41.8863 44.7667 41.9016 44.7667H50.4023V47.0177ZM24.8086 13.2532C25.4789 13.2532 26.0273 13.7596 26.0273 14.3787C26.0273 14.9977 25.4789 15.5041 24.8086 15.5041C24.1383 15.5041 23.5898 14.9977 23.5898 14.3787C23.5898 13.7596 24.1383 13.2532 24.8086 13.2532ZM24.8086 17.7692C35.5641 17.7692 44.3086 25.8445 44.3086 35.7769V38.0138H5.30859V35.7769C5.30859 25.8445 14.0531 17.7692 24.8086 17.7692ZM5.30859 40.2648H44.3086C44.3086 41.5028 43.227 42.5017 41.9016 42.5158H7.71562C6.39023 42.5017 5.30859 41.5028 5.30859 40.2648Z" fill="#2E2E2E"/>
<path d="M55.2773 41.3903H71.1211C71.2582 41.3903 71.3953 41.3621 71.5324 41.3058C71.5781 41.2918 71.6086 41.2777 71.6391 41.2636C71.6695 41.2496 71.7152 41.2355 71.7457 41.2214C71.7914 41.1933 71.8066 41.1652 71.8371 41.137C71.8981 41.0948 71.959 41.0385 72.0199 40.9823C72.0656 40.926 72.1113 40.8697 72.1418 40.8134C72.1723 40.7572 72.218 40.6868 72.2332 40.6165C72.2637 40.5461 72.2789 40.4617 72.2789 40.3914C72.2789 40.3492 72.3094 40.307 72.3094 40.2648C72.3094 40.2366 72.2941 40.2085 72.2941 40.1804C72.2941 40.11 72.2637 40.0397 72.2484 39.9553C72.218 39.8849 72.2027 39.8146 72.157 39.7442C72.1418 39.7161 72.1418 39.688 72.1266 39.6739L66.1242 30.67C66.0938 30.6278 66.0633 30.6137 66.0328 30.5715C65.9871 30.5153 65.9414 30.459 65.8805 30.4168C65.8195 30.3605 65.7434 30.3324 65.6824 30.2902C65.6215 30.262 65.5605 30.2339 65.4996 30.2058C65.4082 30.1776 65.3168 30.1635 65.2254 30.1495C65.1797 30.1495 65.1492 30.1213 65.1035 30.1213H60.1523C60.1523 30.1213 60.1523 30.1213 60.1371 30.1213C60.1219 30.1213 60.1371 30.1213 60.1219 30.1213H55.2773C54.607 30.1213 54.0586 30.6278 54.0586 31.2468V40.2507C54.0586 40.8838 54.607 41.3903 55.2773 41.3903ZM64.4484 32.3864L68.9426 39.1393H61.3711V32.3864H64.4484ZM58.9336 39.1393H56.4961V32.3864H58.9336V39.1393Z" fill="#2E2E2E"/>
<path d="M55.2773 48.1431H56.4961C57.1664 48.1431 57.7148 47.6366 57.7148 47.0176C57.7148 46.3986 57.1664 45.8921 56.4961 45.8921H55.2773C54.607 45.8921 54.0586 46.3986 54.0586 47.0176C54.0586 47.6366 54.607 48.1431 55.2773 48.1431Z" fill="#90A9C5"/>
<path d="M24.7935 22.2571C32.8677 22.2571 39.4337 28.3206 39.4337 35.777C39.4337 36.396 39.9821 36.9024 40.6524 36.9024C41.3228 36.9024 41.8712 36.396 41.8712 35.777C41.8712 27.0826 34.2083 20.0061 24.7935 20.0061C24.1231 20.0061 23.5747 20.5126 23.5747 21.1316C23.5747 21.7506 24.1231 22.2571 24.7935 22.2571Z" fill="#90A9C5"/>
<path d="M11.7678 14.0551C12.0116 14.2802 12.3163 14.3787 12.6362 14.3787C12.9561 14.3787 13.2608 14.2662 13.5046 14.0551C14.6167 13.0281 16.0639 10.341 13.596 7.48513C11.9507 5.59994 13.2303 4.17902 13.5198 3.91171C13.9921 3.47559 13.9921 2.75809 13.5198 2.32197C13.0475 1.88584 12.2706 1.88584 11.7983 2.32197C10.6862 3.34897 9.23893 6.03607 11.7069 8.89198C13.3522 10.7912 12.0573 12.1981 11.7983 12.4654C11.2803 12.9015 11.2803 13.6049 11.7678 14.0551Z" fill="#90A9C5"/>
<path d="M36.1277 14.0551C36.3714 14.2802 36.6761 14.3787 36.9961 14.3787C37.316 14.3787 37.6207 14.2662 37.8644 14.0551C38.9765 13.0281 40.4238 10.341 37.9558 7.48513C36.3105 5.59994 37.5902 4.17902 37.8797 3.91171C38.3519 3.47559 38.3519 2.75809 37.8797 2.32197C37.4074 1.88584 36.6304 1.88584 36.1582 2.32197C35.0461 3.34897 33.5988 6.03607 36.0668 8.89198C37.7121 10.7912 36.4172 12.1981 36.1582 12.4654C35.6554 12.9015 35.6554 13.6049 36.1277 14.0551Z" fill="#90A9C5"/>
<path d="M25.677 2.32197C25.2048 1.88584 24.4278 1.88584 23.9555 2.32197C22.8434 3.34897 21.3962 6.03607 23.8641 8.89198C24.1079 9.17335 24.4583 9.31404 24.8239 9.31404C25.0981 9.31404 25.3571 9.22963 25.5856 9.06081C26.1036 8.66689 26.195 7.96346 25.7684 7.48513C24.1231 5.59994 25.4028 4.17902 25.6923 3.91171C26.1493 3.47559 26.1493 2.77216 25.677 2.32197Z" fill="#90A9C5"/>
</g>
<defs>
<clipPath id="clip0_80_75">
<rect width="78" height="72.031" fill="white" transform="translate(0.433594 0.310059)"/>
</clipPath>
</defs>
</svg>
