<svg width="69" height="87" viewBox="0 0 69 87" fill="none" xmlns="http://www.w3.org/2000/svg">
<ellipse cx="34.5" cy="58.8795" rx="28.3667" ry="27.431" fill="#90A9C5" fill-opacity="0.3"/>
<path d="M68.9191 20.2756C68.8922 20.2104 68.8518 20.1583 68.8113 20.0932C68.7709 20.041 68.7439 19.9759 68.7035 19.9368C68.6496 19.8846 68.5822 19.8456 68.5148 19.7934C68.4744 19.7674 68.434 19.7283 68.3935 19.7022L34.9717 4.06373C34.9447 4.0507 34.9312 4.0507 34.9043 4.0507C34.8369 4.02463 34.7695 4.0116 34.6887 3.99857C34.6213 3.98554 34.5539 3.9725 34.4865 3.9725C34.4191 3.9725 34.3518 3.98554 34.2844 3.99857C34.217 4.0116 34.1496 4.02463 34.0822 4.0507C34.0553 4.06373 34.0418 4.0507 34.0148 4.06373L18.3281 11.4138V9.1723C18.9211 9.1723 19.4062 8.70314 19.4062 8.12973V5.00204C19.4062 4.42863 18.9211 3.95947 18.3281 3.95947H8.625C8.03203 3.95947 7.54687 4.42863 7.54687 5.00204V8.12973C7.54687 8.70314 8.03203 9.1723 8.625 9.1723V15.949L0.606445 19.7022C0.552539 19.7283 0.525586 19.7674 0.485156 19.7934C0.417773 19.8325 0.350391 19.8716 0.296484 19.9368C0.256055 19.9889 0.215625 20.041 0.188672 20.0932C0.148242 20.1453 0.107812 20.1974 0.0808594 20.2756C0.0539062 20.3408 0.0404297 20.419 0.0404297 20.4972C0.0269531 20.5362 0 20.5884 0 20.6405V24.8108C0 24.8238 0 24.8238 0 24.8368C0 24.902 0.0269531 24.9671 0.0404297 25.0453C0.0539062 25.1105 0.0673828 25.1887 0.0943359 25.2408C0.0943359 25.2539 0.0943359 25.2539 0.0943359 25.2669C0.148242 25.3711 0.215625 25.4624 0.296484 25.5275C0.309961 25.5406 0.336914 25.5536 0.350391 25.5797C0.43125 25.6448 0.512109 25.6969 0.592969 25.736C0.619922 25.7491 0.660351 25.7621 0.687305 25.7751C0.808594 25.8142 0.929883 25.8403 1.05117 25.8533C1.05117 25.8533 1.05117 25.8533 1.06465 25.8533C1.22637 25.8533 1.36113 25.8142 1.4959 25.7621C1.50937 25.7621 1.50937 25.7621 1.52285 25.7621L3.20742 24.9802V62.3431C3.20742 62.9165 3.69258 63.3857 4.28555 63.3857H64.6605C65.2535 63.3857 65.7387 62.9165 65.7387 62.3431V24.9671L67.4232 25.7621C67.4367 25.7621 67.4367 25.7621 67.4502 25.7621C67.585 25.8273 67.7332 25.8533 67.8814 25.8533C67.8814 25.8533 67.8814 25.8533 67.8949 25.8533C68.0162 25.8533 68.151 25.8273 68.2588 25.7751C68.2992 25.7621 68.3262 25.7491 68.3531 25.736C68.4475 25.6969 68.5283 25.6448 68.5957 25.5797C68.6092 25.5666 68.6361 25.5536 68.6496 25.5275C68.7305 25.4493 68.7978 25.3581 68.8517 25.2669C68.8517 25.2539 68.8517 25.2539 68.8517 25.2408C68.8787 25.1757 68.8922 25.1105 68.9057 25.0453C68.9191 24.9802 68.9461 24.915 68.9461 24.8368C68.9461 24.8238 68.9461 24.8238 68.9461 24.8108V20.6405C68.9461 20.5884 68.9191 20.5363 68.9191 20.4841C68.9596 20.419 68.9461 20.3408 68.9191 20.2756ZM34.9717 8.23399C34.9447 8.22096 34.9312 8.22096 34.9043 8.22096C34.8369 8.19489 34.7695 8.18186 34.6887 8.16883C34.6213 8.1558 34.5539 8.14276 34.4865 8.14276C34.4191 8.14276 34.3518 8.1558 34.2844 8.16883C34.217 8.18186 34.1496 8.19489 34.0822 8.22096C34.0553 8.23399 34.0418 8.22096 34.0148 8.23399L2.15625 23.1427V21.2921L34.5 6.16189L66.8437 21.2921V23.1427L34.9717 8.23399ZM9.70312 6.0446H17.25V7.08717H9.70312V6.0446ZM10.7812 9.1723H16.1719V12.4173L10.7812 14.9455V9.1723ZM63.6094 61.3005H5.39062V23.9506L34.5 10.3321L63.6094 23.9506V61.3005Z" fill="#2E2E2E"/>
<path d="M34.5 25.8533C26.1715 25.8533 19.4062 32.3954 19.4062 40.4492C19.4062 48.503 26.1715 55.0451 34.5 55.0451C42.8285 55.0451 49.5938 48.503 49.5938 40.4492C49.5938 32.3954 42.8285 25.8533 34.5 25.8533ZM34.5 52.96C27.3709 52.96 21.5625 47.3431 21.5625 40.4492C21.5625 33.5552 27.3709 27.9384 34.5 27.9384C41.6291 27.9384 47.4375 33.5552 47.4375 40.4492C47.4375 47.3431 41.6291 52.96 34.5 52.96Z" fill="#90A9C5"/>
<path d="M34.5 33.1514C30.3357 33.1514 26.9531 36.4224 26.9531 40.4493C26.9531 44.4762 30.3357 47.7473 34.5 47.7473C38.6643 47.7473 42.0469 44.4762 42.0469 40.4493C42.0469 36.4224 38.6643 33.1514 34.5 33.1514ZM34.5 45.6621C31.5217 45.6621 29.1094 43.3294 29.1094 40.4493C29.1094 37.5692 31.5217 35.2365 34.5 35.2365C37.4783 35.2365 39.8906 37.5692 39.8906 40.4493C39.8906 43.3294 37.4783 45.6621 34.5 45.6621Z" fill="#90A9C5"/>
<path d="M19.4062 34.1938V26.8958C19.4062 26.3224 18.9211 25.8533 18.3281 25.8533C17.7352 25.8533 17.25 26.3224 17.25 26.8958V31.0661H16.7109V26.8958C16.7109 26.3224 16.2258 25.8533 15.6328 25.8533C15.0398 25.8533 14.5547 26.3224 14.5547 26.8958V31.0661H14.0156V26.8958C14.0156 26.3224 13.5305 25.8533 12.9375 25.8533C12.3445 25.8533 11.8594 26.3224 11.8594 26.8958V34.1938C11.8594 35.3406 12.8297 36.2789 14.0156 36.2789H14.5547V54.0155C14.5547 54.589 15.0398 55.0581 15.6328 55.0581C16.2258 55.0581 16.7109 54.589 16.7109 54.0155V36.2789H17.2365C17.2365 36.2789 17.2365 36.2789 17.25 36.2789C18.4359 36.2789 19.4062 35.3536 19.4062 34.1938ZM17.25 33.1512V34.1938C17.25 34.1938 17.25 34.1938 17.25 34.2068H14.0156V33.1643H17.25V33.1512Z" fill="#90A9C5"/>
<path d="M50.6719 54.0155C50.6719 54.589 51.157 55.0581 51.75 55.0581C52.343 55.0581 52.8281 54.589 52.8281 54.0155V42.5343H54.9844C55.5773 42.5343 56.0625 42.0652 56.0625 41.4917V30.0235C56.0625 27.7299 54.1354 25.8533 51.75 25.8533C51.157 25.8533 50.6719 26.3224 50.6719 26.8958C50.6719 26.9089 50.6719 26.9219 50.6719 26.9219V54.0155ZM53.9062 30.0235V40.4492H52.8281V28.2251C53.475 28.59 53.9062 29.2546 53.9062 30.0235Z" fill="#90A9C5"/>
</svg>
