<svg width="72" height="92" viewBox="0 0 72 92" fill="none" xmlns="http://www.w3.org/2000/svg">
<ellipse cx="36.1088" cy="63.6927" rx="27.6664" ry="27.618" fill="#90A9C5" fill-opacity="0.3"/>
<path d="M36.1083 2.50146C17.5255 2.50146 2.45996 17.2159 2.45996 35.3564C2.45996 53.5057 17.5255 68.2201 36.1083 68.2201C54.689 68.2201 69.7567 53.5057 69.7567 35.3564C69.7567 17.2093 54.689 2.50146 36.1083 2.50146ZM60.9498 54.4411C60.3749 55.0129 59.6881 55.4661 58.9303 55.7738C58.1725 56.0814 57.3591 56.2372 56.5385 56.2319C53.8792 56.2319 50.9686 54.762 48.1208 51.981C47.007 50.8933 46.0167 49.924 45.5568 49.3501C47.3558 48.544 49.0272 47.4902 50.5199 46.2208L59.033 52.5703L52.5254 44.2448C53.815 42.7702 54.8513 41.1012 55.5941 39.3028C56.1538 39.6872 57.2216 40.7278 58.4307 41.9096C63.165 46.534 64.1296 51.3359 60.9498 54.4411ZM60.0189 40.3598C58.1491 38.535 57.1442 37.5569 56.276 37.168C56.322 36.0519 54.7978 35.6247 54.1775 36.4769C49.3232 43.1659 43.5772 44.8505 36.1083 44.8505C28.6395 44.8505 22.8935 43.167 18.038 36.4769C17.3617 35.5459 15.5817 36.1319 15.9754 37.4835C18.5248 46.2514 27.1915 51.3578 36.1083 51.3578C38.5952 51.3536 41.0646 50.9525 43.419 50.1704C43.8979 50.9503 44.8749 51.9054 46.536 53.5287C49.6193 56.5386 52.8619 58.1958 55.9541 58.3842C50.5861 62.807 43.6635 65.4818 36.1083 65.4818C19.1002 65.4818 5.26399 51.9678 5.26399 35.3564C5.26399 18.7504 19.1002 5.23974 36.1083 5.23974C53.1153 5.23974 66.9527 18.7504 66.9527 35.3564C66.9527 39.5076 66.0823 43.4617 64.5199 47.063C63.8447 44.9863 62.4359 42.7223 60.0189 40.3598Z" fill="#2E2E2E"/>
<path d="M23.8434 19.1348C20.7018 19.1348 17.5601 21.9366 15.4762 27.5347C15.2698 28.0988 16.3443 29.1152 16.8827 28.5621C18.9038 26.4799 21.3209 25.6508 23.8445 25.6508C26.3682 25.6508 28.7841 26.4799 30.8064 28.5621C31.3436 29.1152 32.4193 28.0977 32.2129 27.5347C30.1267 21.9355 26.985 19.1348 23.8434 19.1348Z" fill="#90A9C5"/>
<path d="M48.3733 19.1348C45.2317 19.1348 42.09 21.9366 40.005 27.5347C39.7986 28.0988 40.8742 29.1152 41.4115 28.5621C43.4337 26.4799 45.8497 25.6508 48.3733 25.6508C50.8969 25.6508 53.3129 26.4799 55.3352 28.5621C55.8724 29.1152 56.948 28.0977 56.7417 27.5347C54.6555 21.9355 51.5138 19.1348 48.3733 19.1348Z" fill="#90A9C5"/>
</svg>
