<svg width="29" height="33" viewBox="0 0 29 33" fill="none" xmlns="http://www.w3.org/2000/svg">
<path d="M5.12174 9.71247C5.00076 9.54265 5.2134 9.36921 5.36005 9.51374C5.63869 9.78835 8.43236 12.697 8.87231 13.1631C9.31226 13.6293 9.52857 13.7196 9.77054 13.4811C10.0162 13.239 9.68622 12.8307 9.52491 12.6356C9.36359 12.4441 6.16296 8.59958 6.00531 8.41531C5.79633 8.16961 5.75234 8.07927 5.85133 7.98171C5.95032 7.88416 6.04197 7.92752 6.29128 8.13347C6.48192 8.28884 10.3791 11.4432 10.5735 11.6022C10.7678 11.7612 11.1857 12.0864 11.4314 11.8443C11.677 11.6022 11.5853 11.3926 11.1087 10.959C10.6358 10.5255 7.68445 7.77214 7.40582 7.49754C7.25917 7.35301 7.43515 7.14705 7.60746 7.26267C7.85676 7.43611 12.5459 10.4821 13.1142 11.1036C14.236 12.3285 13.1068 13.9075 14.0454 15.1324C13.7484 15.3889 13.4075 15.6816 13.0298 16.0032C11.798 15.1757 10.2362 16.2236 9.0153 15.1396C8.3847 14.5795 5.29406 9.95817 5.11808 9.71247H5.12174ZM22.1478 22.0699C21.4952 21.517 18.3862 18.8793 16.2965 17.1052C15.9848 17.4593 15.6072 17.8857 15.1856 18.3626C16.982 20.4186 19.5961 23.4068 20.146 24.0427C21.0039 25.0291 22.1735 26.5612 23.4383 25.3146C24.7032 24.068 23.1487 22.919 22.1478 22.0699ZM23.123 11.8046C23.8893 10.3376 24.1899 8.70798 23.4456 7.97449C22.7014 7.24099 21.0479 7.53728 19.5594 8.29246C18.0783 9.04402 17.0517 10.1461 16.8684 11.3131C16.5788 13.1704 16.8427 13.9472 15.8198 14.7494C15.2479 15.201 7.29583 22.0843 6.30594 22.937C5.32339 23.7825 5.13641 24.5919 5.84033 25.3037C5.84033 25.3037 5.84766 25.311 5.85133 25.3146C5.85133 25.3146 5.85866 25.3218 5.86233 25.3254C6.58458 26.0192 7.40582 25.8313 8.26372 24.8629C9.12895 23.8873 16.1131 16.0501 16.5714 15.4865C17.389 14.482 18.1772 14.7385 20.058 14.4531C21.2422 14.2724 22.3604 13.2607 23.123 11.8009V11.8046ZM5.15841 22.9334L4.17585 22.3734V10.6266L4.58281 10.3954C4.50582 10.2834 4.45449 10.2075 4.43616 10.1822C4.40683 10.1388 4.38483 10.0919 4.36283 10.0449L3.7579 10.3882V22.6118L4.9201 23.2731C4.98976 23.1611 5.07042 23.0454 5.15841 22.9334ZM14.5 0L0 8.2491V24.7509L14.5 33L29 24.7509V8.2491L14.5 0ZM28.582 24.516L14.5 32.5303L0.417952 24.516V8.48757L14.5 0.476952L28.582 8.49119V24.516ZM9.56523 7.56258L14.5 4.75506L19.3138 7.49392C19.4678 7.41804 19.6254 7.34939 19.7794 7.28435L14.5 4.28173L9.18028 7.30965C9.31226 7.39636 9.44058 7.48308 9.56523 7.56619V7.56258ZM24.5345 10.464L24.8241 10.6302V22.377L24.1166 22.7817C24.2046 22.8901 24.2852 23.0021 24.3622 23.1177L25.2458 22.6155V10.3882L24.6298 10.0377C24.6042 10.1786 24.5748 10.3195 24.5382 10.4604L24.5345 10.464ZM19.992 25.1231L14.5 28.2485L9.09595 25.1737C9.00796 25.2712 8.94197 25.3471 8.89065 25.4049C8.86498 25.4338 8.83932 25.4591 8.80999 25.488L14.4963 28.7255L20.278 25.4374C20.179 25.3363 20.0837 25.2315 19.9884 25.1267L19.992 25.1231Z" fill="url(#paint0_linear_110_15)"/>
<defs>
<linearGradient id="paint0_linear_110_15" x1="2.0311" y1="31.2114" x2="27.5046" y2="0.27108" gradientUnits="userSpaceOnUse">
<stop stop-color="#5E81A8"/>
<stop offset="0.19" stop-color="#414D65"/>
<stop offset="0.28" stop-color="#323142"/>
<stop offset="0.42" stop-color="#465672"/>
<stop offset="0.56" stop-color="#577599"/>
<stop offset="0.63" stop-color="#5E81A8"/>
<stop offset="0.71" stop-color="#567396"/>
<stop offset="0.87" stop-color="#424F69"/>
<stop offset="1" stop-color="#323142"/>
</linearGradient>
</defs>
</svg>
